<svg width="15" height="15" viewBox="0 0 15 15" fill="none" xmlns="http://www.w3.org/2000/svg">
<path d="M4.04423 5.56998C3.67884 5.57018 3.3216 5.46199 3.01771 5.25912C2.71382 5.05624 2.47693 4.76779 2.33701 4.43026C2.1971 4.09272 2.16043 3.72127 2.23167 3.36289C2.3029 3.00451 2.47883 2.67532 2.7372 2.41695C2.99557 2.15858 3.32477 1.98265 3.68314 1.91142C4.04152 1.84018 4.41297 1.87684 4.75051 2.01676C5.08804 2.15668 5.37649 2.39357 5.57937 2.69746C5.78224 3.00135 5.89043 3.35859 5.89023 3.72398C5.88944 4.21332 5.69469 4.6824 5.34867 5.02842C5.00265 5.37444 4.53357 5.56918 4.04423 5.56998ZM4.04423 2.98498C3.89807 2.98498 3.75519 3.02832 3.63366 3.10952C3.51213 3.19072 3.41741 3.30614 3.36148 3.44117C3.30555 3.57621 3.29091 3.7248 3.31943 3.86815C3.34794 4.0115 3.41833 4.14318 3.52168 4.24653C3.62503 4.34988 3.7567 4.42026 3.90006 4.44878C4.04341 4.47729 4.192 4.46266 4.32703 4.40672C4.46207 4.35079 4.57748 4.25607 4.65868 4.13454C4.73989 4.01302 4.78323 3.87014 4.78323 3.72398C4.78296 3.52806 4.70502 3.34025 4.56649 3.20172C4.42796 3.06319 4.24014 2.98524 4.04423 2.98498Z" fill="white"/>
<path d="M13.6152 7.04839H1.82521C1.53188 7.0476 1.25082 6.93051 1.04368 6.72281C0.836537 6.5151 0.720214 6.23373 0.720215 5.94039L0.720215 1.50839C0.720214 1.21505 0.836537 0.933679 1.04368 0.725975C1.25082 0.518271 1.53188 0.401185 1.82521 0.400391L13.6152 0.400391C13.9086 0.401185 14.1896 0.518271 14.3968 0.725975C14.6039 0.933679 14.7202 1.21505 14.7202 1.50839V5.94039C14.7202 6.23373 14.6039 6.5151 14.3968 6.72281C14.1896 6.93051 13.9086 7.0476 13.6152 7.04839ZM1.82521 1.50839V5.94039H13.6152V1.50839H1.82521Z" fill="white"/>
<path d="M4.04423 12.9225C3.67884 12.9227 3.3216 12.8145 3.01771 12.6117C2.71382 12.4088 2.47693 12.1203 2.33701 11.7828C2.1971 11.4453 2.16043 11.0738 2.23167 10.7154C2.3029 10.3571 2.47883 10.0279 2.7372 9.76949C2.99557 9.51112 3.32477 9.33519 3.68314 9.26396C4.04152 9.19272 4.41297 9.22938 4.75051 9.3693C5.08804 9.50922 5.37649 9.74611 5.57937 10.05C5.78224 10.3539 5.89043 10.7111 5.89023 11.0765C5.88944 11.5659 5.69469 12.0349 5.34867 12.381C5.00265 12.727 4.53357 12.9217 4.04423 12.9225ZM4.04423 10.3375C3.89807 10.3375 3.75519 10.3809 3.63366 10.4621C3.51213 10.5433 3.41741 10.6587 3.36148 10.7937C3.30555 10.9287 3.29091 11.0773 3.31943 11.2207C3.34794 11.364 3.41833 11.4957 3.52168 11.5991C3.62503 11.7024 3.7567 11.7728 3.90006 11.8013C4.04341 11.8298 4.192 11.8152 4.32703 11.7593C4.46207 11.7033 4.57748 11.6086 4.65868 11.4871C4.73989 11.3656 4.78323 11.2227 4.78323 11.0765C4.78296 10.8806 4.70502 10.6928 4.56649 10.5543C4.42796 10.4157 4.24014 10.3378 4.04423 10.3375Z" fill="white"/>
<path d="M13.6152 14.4H1.82521C1.53188 14.3992 1.25082 14.2821 1.04368 14.0744C0.836537 13.8667 0.720214 13.5853 0.720215 13.292L0.720215 8.85995C0.720214 8.56661 0.836537 8.28524 1.04368 8.07754C1.25082 7.86983 1.53188 7.75275 1.82521 7.75195H13.6152C13.9086 7.75275 14.1896 7.86983 14.3968 8.07754C14.6039 8.28524 14.7202 8.56661 14.7202 8.85995V13.292C14.7202 13.5853 14.6039 13.8667 14.3968 14.0744C14.1896 14.2821 13.9086 14.3992 13.6152 14.4ZM1.82521 8.85995V13.292H13.6152V8.85995H1.82521Z" fill="white"/>
</svg>
