<svg width="15" height="15" viewBox="0 0 15 15" fill="none" xmlns="http://www.w3.org/2000/svg">
<path d="M4.04453 5.56998C3.67915 5.57018 3.32191 5.46199 3.01802 5.25912C2.71413 5.05624 2.47724 4.76779 2.33732 4.43026C2.1974 4.09272 2.16074 3.72127 2.23197 3.36289C2.30321 3.00451 2.47914 2.67532 2.73751 2.41695C2.99588 2.15858 3.32507 1.98265 3.68345 1.91142C4.04182 1.84018 4.41328 1.87684 4.75081 2.01676C5.08835 2.15668 5.3768 2.39357 5.57967 2.69746C5.78255 3.00135 5.89073 3.35859 5.89053 3.72398C5.88974 4.21332 5.695 4.6824 5.34898 5.02842C5.00296 5.37444 4.53388 5.56918 4.04453 5.56998ZM4.04453 2.98498C3.89837 2.98498 3.7555 3.02832 3.63397 3.10952C3.51244 3.19072 3.41772 3.30614 3.36179 3.44117C3.30585 3.57621 3.29122 3.7248 3.31973 3.86815C3.34825 4.0115 3.41863 4.14318 3.52198 4.24653C3.62533 4.34988 3.75701 4.42026 3.90036 4.44878C4.04371 4.47729 4.1923 4.46266 4.32734 4.40672C4.46237 4.35079 4.57779 4.25607 4.65899 4.13454C4.74019 4.01302 4.78353 3.87014 4.78353 3.72398C4.78327 3.52806 4.70533 3.34025 4.56679 3.20172C4.42826 3.06319 4.24045 2.98524 4.04453 2.98498Z" fill="#959DB3"/>
<path d="M13.6155 7.04839H1.82546C1.53212 7.0476 1.25107 6.93051 1.04392 6.72281C0.836781 6.5151 0.720458 6.23373 0.720459 5.94039L0.720459 1.50839C0.720458 1.21505 0.836781 0.933679 1.04392 0.725975C1.25107 0.518271 1.53212 0.401185 1.82546 0.400391L13.6155 0.400391C13.9088 0.401185 14.1899 0.518271 14.397 0.725975C14.6041 0.933679 14.7205 1.21505 14.7205 1.50839V5.94039C14.7205 6.23373 14.6041 6.5151 14.397 6.72281C14.1899 6.93051 13.9088 7.0476 13.6155 7.04839ZM1.82546 1.50839V5.94039H13.6155V1.50839H1.82546Z" fill="#959DB3"/>
<path d="M4.04441 12.9225C3.67902 12.9227 3.32179 12.8145 3.0179 12.6117C2.71401 12.4088 2.47712 12.1203 2.3372 11.7828C2.19728 11.4453 2.16062 11.0738 2.23185 10.7154C2.30309 10.3571 2.47902 10.0279 2.73739 9.76949C2.99575 9.51112 3.32495 9.33519 3.68333 9.26396C4.0417 9.19272 4.41315 9.22938 4.75069 9.3693C5.08823 9.50922 5.37668 9.74611 5.57955 10.05C5.78243 10.3539 5.89061 10.7111 5.89041 11.0765C5.88962 11.5659 5.69487 12.0349 5.34885 12.381C5.00283 12.727 4.53376 12.9217 4.04441 12.9225ZM4.04441 10.3375C3.89825 10.3375 3.75537 10.3809 3.63385 10.4621C3.51232 10.5433 3.4176 10.6587 3.36166 10.7937C3.30573 10.9287 3.2911 11.0773 3.31961 11.2207C3.34813 11.364 3.41851 11.4957 3.52186 11.5991C3.62521 11.7024 3.75689 11.7728 3.90024 11.8013C4.04359 11.8298 4.19218 11.8152 4.32721 11.7593C4.46225 11.7033 4.57767 11.6086 4.65887 11.4871C4.74007 11.3656 4.78341 11.2227 4.78341 11.0765C4.78315 10.8806 4.7052 10.6928 4.56667 10.5543C4.42814 10.4157 4.24033 10.3378 4.04441 10.3375Z" fill="#959DB3"/>
<path d="M13.6155 14.4H1.82546C1.53212 14.3992 1.25107 14.2821 1.04392 14.0744C0.836781 13.8667 0.720458 13.5853 0.720459 13.292L0.720459 8.85995C0.720458 8.56661 0.836781 8.28524 1.04392 8.07754C1.25107 7.86983 1.53212 7.75275 1.82546 7.75195H13.6155C13.9088 7.75275 14.1899 7.86983 14.397 8.07754C14.6041 8.28524 14.7205 8.56661 14.7205 8.85995V13.292C14.7205 13.5853 14.6041 13.8667 14.397 14.0744C14.1899 14.2821 13.9088 14.3992 13.6155 14.4ZM1.82546 8.85995V13.292H13.6155V8.85995H1.82546Z" fill="#959DB3"/>
</svg>
