<svg width="13" height="14" viewBox="0 0 13 14" fill="none" xmlns="http://www.w3.org/2000/svg">
<path d="M0.000152456 14.0004V10.8894C-0.0136969 10.4612 0.100131 10.0386 0.327152 9.67538L9.24315 0.341379C9.34408 0.233629 9.46604 0.147736 9.6015 0.0890167C9.73695 0.0302972 9.88302 0 10.0307 0C10.1783 0 10.3244 0.0302972 10.4598 0.0890167C10.5953 0.147736 10.7172 0.233629 10.8182 0.341379L12.6752 2.28538C12.8841 2.50909 13.0003 2.80378 13.0003 3.10988C13.0003 3.41598 12.8841 3.71066 12.6752 3.93438L4.08615 13.2224C3.76239 13.4611 3.37416 13.5967 2.97215 13.6114L0.000152456 14.0004ZM10.0302 1.16638L1.11415 10.5004L2.97215 12.4454L11.8872 3.11038L10.0302 1.16638Z" fill="white"/>
</svg>
