<svg width="16" height="17" viewBox="0 0 16 17" fill="none" xmlns="http://www.w3.org/2000/svg">
<path d="M12.509 17.0004H2.124C1.81581 16.9974 1.52135 16.8724 1.3052 16.6527C1.08905 16.433 0.968868 16.1366 0.971 15.8284V3.71635H0.586C0.430583 3.71635 0.281532 3.65462 0.171635 3.54472C0.0617391 3.43482 0 3.28577 0 3.13035C0 2.97494 0.0617391 2.82589 0.171635 2.71599C0.281532 2.60609 0.430583 2.54435 0.586 2.54435H3.886C4.16193 1.79937 4.6583 1.15614 5.309 0.700354C5.95309 0.247139 6.72144 0.00390625 7.509 0.00390625C8.29656 0.00390625 9.06491 0.247139 9.709 0.700354C10.3593 1.15692 10.855 1.80087 11.13 2.54635H14.43C14.5854 2.54635 14.7345 2.60809 14.8444 2.71799C14.9543 2.82789 15.016 2.97694 15.016 3.13235C15.016 3.28777 14.9543 3.43682 14.8444 3.54672C14.7345 3.65662 14.5854 3.71835 14.43 3.71835H13.66V15.8284C13.6621 16.1362 13.5422 16.4324 13.3265 16.652C13.1108 16.8717 12.8168 16.9969 12.509 17.0004ZM10.394 8.60035C10.5482 8.60168 10.6955 8.66413 10.8037 8.77399C10.9119 8.88386 10.9721 9.03217 10.971 9.18635V15.8284H12.509V3.71635H2.124V15.8284H3.663V9.18635C3.663 9.11058 3.67792 9.03555 3.70692 8.96555C3.73592 8.89554 3.77842 8.83193 3.832 8.77835C3.88558 8.72477 3.94919 8.68227 4.01919 8.65328C4.0892 8.62428 4.16423 8.60935 4.24 8.60935C4.31577 8.60935 4.3908 8.62428 4.46081 8.65328C4.53081 8.68227 4.59442 8.72477 4.648 8.77835C4.70158 8.83193 4.74408 8.89554 4.77308 8.96555C4.80208 9.03555 4.817 9.11058 4.817 9.18635V15.8284H6.74V6.84135C6.74 6.68832 6.80079 6.54156 6.909 6.43335C7.01721 6.32514 7.16397 6.26435 7.317 6.26435C7.47003 6.26435 7.61679 6.32514 7.725 6.43335C7.83321 6.54156 7.894 6.68832 7.894 6.84135V15.8274H9.817V9.18635C9.81593 9.03217 9.8761 8.88386 9.98428 8.77399C10.0925 8.66413 10.2398 8.60168 10.394 8.60035ZM7.509 1.17635C7.01569 1.13211 6.52061 1.23936 6.08983 1.48378C5.65905 1.72821 5.31305 2.09819 5.098 2.54435H9.92C9.70098 2.1014 9.35418 1.73428 8.9244 1.49042C8.49462 1.24656 8.00159 1.13716 7.509 1.17635Z" fill="white"/>
</svg>
