<svg width="15" height="15" viewBox="0 0 15 15" fill="none" xmlns="http://www.w3.org/2000/svg">
<path d="M12.232 15C11.6981 15.0009 11.175 14.8497 10.724 14.564C10.2453 14.2655 9.87389 13.8225 9.66356 13.2991C9.45324 12.7756 9.41486 12.1988 9.55397 11.652L4.90597 9.38904C4.64404 9.70328 4.31598 9.95584 3.9452 10.1287C3.57442 10.3016 3.17006 10.3905 2.76097 10.389C2.45498 10.3893 2.15099 10.3396 1.86097 10.242C1.32859 10.0731 0.862662 9.74135 0.528928 9.29348C0.195195 8.84561 0.0104948 8.30427 0.00088338 7.74581C-0.00872803 7.18735 0.157234 6.63997 0.475358 6.18088C0.793483 5.7218 1.24771 5.37417 1.77397 5.18704C2.30243 4.98962 2.87801 4.95546 3.42611 5.08901C3.97421 5.22256 4.46956 5.51765 4.84797 5.93604L9.58097 3.43504C9.3948 2.79229 9.45686 2.10305 9.75486 1.5039C10.0529 0.904741 10.5651 0.439388 11.19 0.200044C11.5224 0.0674384 11.8771 -0.000444883 12.235 4.42209e-05C12.7289 -0.00274537 13.2146 0.126494 13.6418 0.374391C14.0691 0.622287 14.4223 0.979836 14.665 1.41004C14.9907 1.99398 15.0832 2.67961 14.9238 3.32898C14.7644 3.97835 14.365 4.54326 13.806 4.91004C13.2432 5.28711 12.5634 5.44867 11.8911 5.3651C11.2189 5.28153 10.5993 4.95843 10.146 4.45504L5.41097 6.94404C5.54875 7.39948 5.55672 7.88433 5.43397 8.34404L10.082 10.608C10.3441 10.2935 10.6725 10.0408 11.0437 9.86796C11.4148 9.69509 11.8195 9.60634 12.229 9.60804V9.61604C12.7983 9.61195 13.355 9.78409 13.8226 10.1089C14.2903 10.4336 14.646 10.8951 14.841 11.43C15.0281 11.9621 15.0405 12.5399 14.8765 13.0795C14.7125 13.6191 14.3805 14.0922 13.929 14.43C13.4401 14.799 12.8445 14.999 12.232 15ZM12.232 10.764C11.9294 10.7713 11.6357 10.8677 11.3876 11.0412C11.1396 11.2146 10.9482 11.4574 10.8375 11.7391C10.7268 12.0208 10.7017 12.3289 10.7653 12.6249C10.8289 12.9208 10.9785 13.1913 11.1952 13.4027C11.4119 13.614 11.6861 13.7567 11.9835 13.8129C12.2809 13.8691 12.5883 13.8362 12.8672 13.7185C13.146 13.6008 13.3839 13.4034 13.5511 13.1511C13.7183 12.8988 13.8073 12.6027 13.807 12.3C13.8007 11.8873 13.631 11.494 13.3353 11.2061C13.0395 10.9182 12.6417 10.7592 12.229 10.764H12.232ZM2.75897 6.15204C2.55377 6.14681 2.34959 6.18271 2.15847 6.25762C1.96736 6.33254 1.79317 6.44495 1.64618 6.58824C1.49919 6.73152 1.38238 6.90279 1.30261 7.09193C1.22285 7.28107 1.18176 7.48427 1.18176 7.68954C1.18176 7.89482 1.22285 8.09801 1.30261 8.28716C1.38238 8.4763 1.49919 8.64756 1.64618 8.79085C1.79317 8.93414 1.96736 9.04655 2.15847 9.12147C2.34959 9.19638 2.55377 9.23228 2.75897 9.22704C2.96418 9.23228 3.16836 9.19638 3.35947 9.12147C3.55059 9.04655 3.72477 8.93414 3.87176 8.79085C4.01875 8.64756 4.13557 8.4763 4.21533 8.28716C4.29509 8.09801 4.33619 7.89482 4.33619 7.68954C4.33619 7.48427 4.29509 7.28107 4.21533 7.09193C4.13557 6.90279 4.01875 6.73152 3.87176 6.58824C3.72477 6.44495 3.55059 6.33254 3.35947 6.25762C3.16836 6.18271 2.96418 6.14681 2.75897 6.15204ZM12.229 1.15204C11.8161 1.14724 11.4181 1.30632 11.1223 1.59443C10.8265 1.88254 10.657 2.27617 10.651 2.68904C10.6613 3.10081 10.8322 3.49223 11.1271 3.77979C11.422 4.06736 11.8176 4.22831 12.2295 4.22831C12.6414 4.22831 13.037 4.06736 13.3319 3.77979C13.6268 3.49223 13.7976 3.10081 13.808 2.68904C13.8009 2.27669 13.6308 1.88393 13.3349 1.59666C13.039 1.30938 12.6414 1.15096 12.229 1.15604V1.15204Z" fill="#959DB3"/>
</svg>
